<!-- Generator: Adobe Illustrator 24.0.2, SVG Export Plug-In  -->
<svg version="1.1" xmlns="http://www.w3.org/2000/svg" xmlns:xlink="http://www.w3.org/1999/xlink" x="0px" y="0px" width="360px"
	 height="360px" viewBox="0 0 360 360" style="enable-background:new 0 0 360 360;" xml:space="preserve">
    <defs>
    </defs>
    <g>
        <path d="M175,7.3v345.4c0,4-3.3,7.3-7.3,7.3H7.3c-4,0-7.3-3.3-7.3-7.3v-39.4c0-4,3.3-7.3,7.3-7.3h106.4c4,0,7.3-3.3,7.3-7.3V7.3
            c0-4,3.3-7.3,7.3-7.3h39.4C171.7,0,175,3.3,175,7.3z"/>
    </g>
    <g>
        <path d="M360,313.3v39.4c0,4-3.3,7.3-7.3,7.3H192.3c-4,0-7.3-3.3-7.3-7.3V7.3c0-4,3.3-7.3,7.3-7.3h39.4c4,0,7.3,3.3,7.3,7.3v291.4
            c0,4,3.3,7.3,7.3,7.3h106.4C356.7,306,360,309.3,360,313.3z"/>
    </g>
</svg>
